<svg xmlns="http://www.w3.org/2000/svg">
<defs>
<symbol id="logo" viewBox="0 0 31 32">
<path fill="#ffc9fa" style="fill: var(--color1, #ffc9fa)" d="M22.519 27.588c-1.26 0-1.8-0.816-2.040-1.644-0.528 0.804-1.308 1.644-2.304 1.644-3.060 0-2.796-4.128-2.112-7.356 0.408-1.92 0.96-3.516 1.056-3.768-0.576-0.048-1.164-0.096-1.728-0.096-2.124 0-3.852 0.612-4.584 3.636-0.336 1.572 0.108 3.12 1.392 3.12 1.416 0 2.376-1.248 2.628-2.448 0.24-1.080-0.12-2.112-1.272-2.112-0.216 0-0.288-0.216-0.24-0.42 0.036-0.216 0.192-0.42 0.42-0.42 1.392 0 1.932 1.5 1.62 2.976-0.312 1.464-1.452 2.916-3.384 2.916-2.376 0-3.36-1.824-2.952-3.732 0.024-0.156 0.072-0.3 0.12-0.444 0.972-3.036 3.408-3.636 5.772-3.636 0.84 0 1.68 0.072 2.436 0.144 0.552-1.044 1.32-1.32 2.088-1.32 0.732 0 1.176 0.288 1.068 0.984-0.156 0.72-0.996 0.948-1.8 0.948h-0.108c-0.204 0.648-0.54 1.92-0.852 3.348-0.66 3.132-1.14 7.056 0.564 7.056 1.62 0 2.208-2.64 2.46-3.852l0.036-0.144c-0.084-0.732-0.036-1.68 0.144-2.496 0.204-0.96 0.588-1.74 1.14-1.74 0.576 0 0.66 0.648 0.48 1.512s-0.636 1.944-1.14 2.76c-0.24 1.164-0.84 3.96 1.224 3.96 1.284 0 1.776-1.5 2.208-3.552 0.168-0.78 0.324-1.656 0.516-2.544 0.66-3.060 1.8-6.252 4.44-6.252 0.216 0 0.444 0.012 0.672 0.060 0.204 0.036 0.264 0.252 0.216 0.468-0.048 0.24-0.228 0.48-0.444 0.48-0.048 0-0.096 0-0.132-0.024-0.42-0.18-0.756-0.276-1.032-0.276-0.84 0-1.152 0.864-1.536 2.688-0.168 0.768-0.348 1.716-0.576 2.832-0.696 3.264-1.884 6.744-4.464 6.744zM18.847 16.044c0.444 0 1.032-0.084 1.116-0.468 0.036-0.24-0.12-0.42-0.408-0.42-0.312 0-0.552 0.216-0.792 0.888h0.084z"></path>
<path fill="#ffc9fa" style="fill: var(--color1, #ffc9fa)" d="M17.245 16.8c-2.676 0-2.388-3.36-1.716-6.48 0.42-1.944 0.96-3.816 1.908-5.088-1.62 0.9-2.988 2.364-3.912 4.104-0.072 0.924-0.228 1.944-0.468 3.060-0.18 0.828-0.516 1.32-0.924 1.32-0.42 0-0.564-0.492-0.384-1.32 0.168-0.768 0.54-1.908 1.152-3.096 0.132-1.764-0.144-3.192-1.044-4.044-0.468 0.276-0.876 2.028-1.164 3.432l-0.168 0.768c-1.104 5.208-1.932 7.332-6.132 7.332-2.604 0-3.12-1.86-2.868-3.060 0.060-0.264 0.348-0.42 0.588-0.42 0.228 0 0.42 0.132 0.36 0.408-0.288 1.332 0.060 2.544 1.944 2.544 2.664 0 3.636-2.616 4.524-6.78 0.276-1.344 0.888-3.936 2.388-4.62-0.528-0.312-1.2-0.456-2.088-0.468-2.4 0-4.8 1.644-5.568 4.812-0.336 1.572 0.108 3.12 1.392 3.12 1.416 0 2.376-1.248 2.628-2.448 0.24-1.080-0.12-2.112-1.272-2.112-0.228 0-0.3-0.216-0.252-0.42 0.048-0.216 0.204-0.42 0.432-0.42 1.392 0 1.932 1.5 1.608 2.976-0.3 1.464-1.44 2.916-3.384 2.916-2.376 0-3.348-1.824-2.94-3.732 0.684-3.264 4.284-5.256 7.44-5.256 2.916 0 4.26 1.464 4.26 4.26 1.44-2.244 4.26-4.272 6.492-4.272 0.204 0 0.408 0.024 0.612 0.060s0.264 0.252 0.216 0.468c-0.048 0.24-0.228 0.48-0.444 0.48-0.036 0-0.084 0-0.12-0.024-0.42-0.18-0.756-0.276-1.032-0.276-0.84 0-1.152 0.852-1.524 2.64-0.168 0.78-0.348 1.74-0.588 2.88-0.9 4.236-1.212 6.156-0.252 6.156 0.252 0 0.6-0.132 1.056-0.408 0.060-0.036 0.12-0.060 0.18-0.060 0.192 0 0.276 0.264 0.228 0.516-0.048 0.216-0.192 0.432-0.456 0.48-0.252 0.048-0.492 0.072-0.708 0.072z"></path>
<path fill="#fffaff" style="fill: var(--color2, #fffaff)" d="M23.4 5.6l1.122 3.455h3.633l-2.939 2.135 1.122 3.455-2.939-2.135-2.939 2.135 1.122-3.455-2.939-2.135h3.633l1.122-3.455zM5.8 16.8l0.584 1.796h1.889l-1.528 1.11 0.584 1.797-1.528-1.11-1.528 1.11 0.584-1.797-1.528-1.11h1.889l0.584-1.796z"></path>
</symbol>
<symbol id="behance" viewBox="0 0 32 32">
<path fill="#fff" style="fill: var(--color2, #fff)" d="M10.667 6.667c0 0 0 0 0 0 2.946 0 5.333 2.388 5.333 5.333 0 1.59-0.696 3.018-1.8 3.995l-0.006 0.005c1.11 0.982 1.806 2.41 1.806 4 0 2.946-2.388 5.333-5.333 5.333-0 0-0 0-0 0h-5.333c-1.473 0-2.667-1.194-2.667-2.667v0-13.333c0-1.473 1.194-2.667 2.667-2.667v0h5.333zM23.333 12c3.476 0 6 3.157 6 6.667-0 0.681-0.511 1.243-1.171 1.323l-0.006 0.001-0.156 0.009h-7.813c0.477 1.632 1.804 2.667 3.147 2.667 1.44 0 2.256-0.681 2.987-1.533 0.246-0.286 0.609-0.467 1.013-0.467 0.736 0 1.333 0.597 1.333 1.333 0 0.332-0.121 0.635-0.322 0.868l0.002-0.002-0.143 0.163-0.305 0.328c-0.963 0.989-2.371 1.976-4.565 1.976-3.476 0-6-3.157-6-6.667s2.524-6.667 6-6.667zM10.667 17.333h-5.333v5.333h5.333c0.004 0 0.008 0 0.012 0 1.473 0 2.667-1.194 2.667-2.667 0-1.407-1.089-2.559-2.47-2.66l-0.009-0-0.2-0.007zM23.333 14.667c-1.343 0-2.669 1.035-3.147 2.667h6.293c-0.477-1.632-1.804-2.667-3.147-2.667zM10.667 9.333h-5.333v5.333h5.333c1.473 0 2.667-1.194 2.667-2.667s-1.194-2.667-2.667-2.667v0zM25.333 8c0.736 0 1.333 0.597 1.333 1.333s-0.597 1.333-1.333 1.333v0h-4c-0.736 0-1.333-0.597-1.333-1.333s0.597-1.333 1.333-1.333v0h4z"></path>
</symbol>
<symbol id="email" viewBox="0 0 40 32">
<path fill="#fff" style="fill: var(--color2, #fff)" d="M16 10c-2.2 0-4 1.84-4 4.1 0 1.14 0.44 2.14 1.18 2.9l6.82 7 6.84-7c0.72-0.74 1.16-1.78 1.16-2.9 0-2.26-1.8-4.1-4-4.1-1.080 0-2.1 0.46-2.82 1.2l-1.18 1.2-1.16-1.18c-0.72-0.744-1.725-1.21-2.838-1.22h-0.002zM36 0c2.2 0 4 1.8 4 4v24c0 2.2-1.8 4-4 4h-32c-2.2 0-4-1.8-4-4v-24c0-2.2 1.8-4 4-4h32zM29.4 8.12l6.6-4.12h-32l6.6 4.12c-0.82 0.78-1.5 1.72-1.94 2.78l-4.66-2.9v20h32v-20l-4.66 2.9c-0.44-1.060-1.12-2-1.94-2.78z"></path>
</symbol>
<symbol id="telegram" viewBox="0 0 37 32">
<path fill="#fff" style="fill: var(--color2, #fff)" d="M37.049 3.655c0.023-0.13 0.035-0.28 0.035-0.434 0-1.473-1.194-2.667-2.667-2.667-0.374 0-0.73 0.077-1.054 0.216l0.017-0.007-30.4 12.8c-2.119 0.892-2.228 3.957 0 4.882 2.204 0.919 4.444 1.76 6.709 2.521 2.076 0.686 4.341 1.321 6.156 1.5 0.496 0.594 1.12 1.166 1.756 1.689 0.972 0.8 2.142 1.623 3.351 2.412 2.421 1.582 5.108 3.095 6.917 4.080 2.164 1.173 4.754-0.178 5.141-2.537l4.036-24.457zM6.389 15.988l26.887-11.321-3.765 22.827c-1.776-0.965-4.334-2.411-6.613-3.9-1.049-0.676-2.064-1.404-3.038-2.185-0.279-0.228-0.525-0.446-0.764-0.671l0.007 0.006 7.042-7.040c0.322-0.322 0.521-0.767 0.521-1.258 0-0.982-0.796-1.778-1.778-1.778-0.491 0-0.935 0.199-1.257 0.52l-7.71 7.71c-1.305-0.167-3.122-0.651-5.116-1.308-2.092-0.686-3.554-1.23-4.996-1.811l0.584 0.208-0.002 0.002z"></path>
</symbol>
<symbol id="linkedin" viewBox="0 0 32 32">
<path fill="#fff" style="fill: var(--color2, #fff)" d="M26.667 0c2.946 0 5.333 2.388 5.333 5.333v0 21.333c0 2.946-2.388 5.333-5.333 5.333v0h-21.333c-2.946 0-5.333-2.388-5.333-5.333v0-21.333c0-2.946 2.388-5.333 5.333-5.333v0h21.333zM26.667 3.556h-21.333c-0.982 0-1.778 0.796-1.778 1.778v0 21.333c0 0.982 0.796 1.778 1.778 1.778v0h21.333c0.982 0 1.778-0.796 1.778-1.778v0-21.333c0-0.982-0.796-1.778-1.778-1.778v0zM8.889 12.444c0.908 0 1.658 0.682 1.764 1.561l0.001 0.009 0.012 0.208v8.889c-0.001 0.981-0.797 1.776-1.778 1.776-0.908 0-1.657-0.68-1.764-1.559l-0.001-0.009-0.012-0.208v-8.889c0-0.982 0.796-1.778 1.778-1.778v0zM14.222 10.667c0 0 0 0 0 0 0.869 0 1.593 0.624 1.747 1.449l0.002 0.011c0.302-0.18 0.666-0.366 1.041-0.53l0.067-0.026c1.186-0.507 2.962-0.786 4.565-0.283 0.841 0.267 1.685 0.764 2.311 1.612 0.56 0.756 0.862 1.675 0.923 2.708l0.011 0.393v7.111c-0.001 0.981-0.797 1.776-1.778 1.776-0.908 0-1.657-0.68-1.764-1.559l-0.001-0.009-0.012-0.208v-7.111c0-0.587-0.142-0.86-0.235-0.987-0.131-0.162-0.309-0.28-0.514-0.333l-0.007-0.002c-0.619-0.196-1.509-0.092-2.101 0.16-0.889 0.38-1.703 0.978-2.258 1.531l-0.219 0.235v6.507c-0.001 0.981-0.797 1.776-1.778 1.776-0.908 0-1.657-0.68-1.764-1.559l-0.001-0.009-0.012-0.208v-10.667c0-0.982 0.796-1.778 1.778-1.778v0zM8.889 7.111c0.982 0 1.778 0.796 1.778 1.778s-0.796 1.778-1.778 1.778v0c-0.982 0-1.778-0.796-1.778-1.778s0.796-1.778 1.778-1.778v0z"></path>
</symbol>
<symbol id="figma" viewBox="0 0 22 32">
<path fill="#f8f7ff" style="fill: var(--color1, #f8f7ff)" d="M18.789 10.56c1.751-0.917 2.926-2.721 2.926-4.8 0-2.981-2.415-5.397-5.395-5.4h-10.8c-2.981 0.002-5.397 2.418-5.397 5.4 0 2.079 1.175 3.884 2.898 4.786l0.030 0.014c-1.751 0.917-2.926 2.721-2.926 4.8 0 2.17 1.28 4.042 3.127 4.9l0.033 0.014c-1.899 1.033-3.166 3.013-3.166 5.289 0 3.314 2.687 6.001 6.001 6.001s6.001-2.687 6.001-6.001c0-0.001 0-0.002 0-0.003v0-6.812c0.998 1.236 2.513 2.019 4.211 2.019 2.982 0 5.4-2.418 5.4-5.4 0-2.085-1.182-3.894-2.912-4.793l-0.030-0.014zM20.52 5.76c0 2.32-1.88 4.2-4.2 4.2h-4.2v-8.401h4.2c0 0 0 0 0.001 0 2.319 0 4.2 1.88 4.2 4.2 0 0 0 0 0 0.001v-0zM12.12 11.16h0.812c-0.301 0.245-0.567 0.511-0.804 0.802l-0.008 0.010v-0.812zM1.32 5.76c0-2.32 1.88-4.2 4.2-4.2h5.4v8.401h-5.401c-2.32-0-4.2-1.881-4.2-4.2v0zM10.92 25.56c0 2.651-2.149 4.8-4.8 4.8s-4.8-2.149-4.8-4.8c0-2.651 2.149-4.8 4.8-4.8v0h4.8v4.8zM10.92 19.56h-5.401c-2.297-0.029-4.148-1.898-4.148-4.2s1.851-4.171 4.146-4.2l0.003-0h5.4v8.4zM16.32 19.56c-2.319 0-4.2-1.88-4.2-4.2s1.88-4.2 4.2-4.2v0c2.32 0 4.2 1.88 4.2 4.2s-1.88 4.2-4.2 4.2v0z"></path>
</symbol>
<symbol id="illustrator" viewBox="0 0 32 32">
<path fill="none" stroke="#f8f7ff" style="stroke: var(--color1, #f8f7ff)" stroke-linejoin="round" stroke-linecap="round" stroke-miterlimit="4" stroke-width="1.3333" d="M22.667 16v6.667M22.667 11v0.017M31 7.667v16.667c0 3.682-2.985 6.667-6.667 6.667v0h-16.667c-3.682 0-6.667-2.985-6.667-6.667v0-16.667c0-3.682 2.985-6.667 6.667-6.667v0h16.667c3.682 0 6.667 2.985 6.667 6.667v0z"></path>
<path fill="none" stroke="#f8f7ff" style="stroke: var(--color1, #f8f7ff)" stroke-linejoin="round" stroke-linecap="round" stroke-miterlimit="4" stroke-width="1" d="M7.667 22.667l1.875-5M9.542 17.667l3.125-8.333 3.125 8.333M9.542 17.667h6.249M17.667 22.667l-1.875-5"></path>
</symbol>
<symbol id="photoshop" viewBox="0 0 32 32">
<path fill="none" stroke="#f8f7ff" style="stroke: var(--color1, #f8f7ff)" stroke-linejoin="round" stroke-linecap="round" stroke-miterlimit="4" stroke-width="1.3333" d="M31 7.667v16.667c0 3.682-2.985 6.667-6.667 6.667v0h-16.667c-3.682 0-6.667-2.985-6.667-6.667v0-16.667c0-3.682 2.985-6.667 6.667-6.667v0h16.667c3.682 0 6.667 2.985 6.667 6.667v0z"></path>
<path fill="none" stroke="#f8f7ff" style="stroke: var(--color1, #f8f7ff)" stroke-linejoin="round" stroke-linecap="round" stroke-miterlimit="4" stroke-width="1.3333" d="M7.667 22.667v-6.667M7.667 16v-6.667h3.333c1.841 0 3.333 1.492 3.333 3.333s-1.492 3.333-3.333 3.333v0h-3.333zM24.333 14.333c-0.506-0.996-1.523-1.667-2.696-1.667-0 0-0 0-0.001 0h-0.637c-1.381 0-2.5 1.119-2.5 2.5s1.119 2.5 2.5 2.5v0h0.833c1.381 0 2.5 1.119 2.5 2.5s-1.119 2.5-2.5 2.5v0h-0.637c-0 0-0 0-0 0-1.174 0-2.191-0.671-2.689-1.65l-0.008-0.017"></path>
</symbol>
<symbol id="after-effects" viewBox="0 0 32 32">
<path fill="none" stroke="#f8f7ff" style="stroke: var(--color1, #f8f7ff)" stroke-linejoin="round" stroke-linecap="round" stroke-miterlimit="4" stroke-width="1.3333" d="M31 7.667v16.667c0 1.768-0.702 3.464-1.953 4.714s-2.946 1.953-4.714 1.953h-16.667c-1.768 0-3.464-0.702-4.714-1.953s-1.953-2.946-1.953-4.714v-16.667c0-1.768 0.702-3.464 1.953-4.714s2.946-1.953 4.714-1.953h16.667c1.768 0 3.464 0.702 4.714 1.953s1.953 2.946 1.953 4.714z"></path>
<path fill="none" stroke="#f8f7ff" style="stroke: var(--color1, #f8f7ff)" stroke-linejoin="round" stroke-linecap="round" stroke-miterlimit="4" stroke-width="1" d="M19.333 17.667v-1.667c0-0.884 0.351-1.732 0.976-2.357s1.473-0.976 2.357-0.976 1.732 0.351 2.357 0.976c0.625 0.625 0.976 1.473 0.976 2.357v1.667h-6.667zM19.333 17.667v1.667c0 0.884 0.351 1.732 0.976 2.357s1.473 0.976 2.357 0.976h2.5M6 22.667l1.875-5M7.875 17.667l3.125-8.333 3.125 8.333M7.875 17.667h6.25M16 22.667l-1.875-5"></path>
</symbol>
</defs>
</svg>